<svg xmlns="http://www.w3.org/2000/svg" width="1024" height="1024" viewBox="0 0 1024 1024">
  <rect width="1024" height="1024" fill="#f7e2dc"/>
  
  <circle cx="120" cy="140" r="26" fill="#cf8b7c" opacity="0.5"/>
  <circle cx="905" cy="200" r="18" fill="#cf8b7c" opacity="0.5"/>
  <circle cx="860" cy="95" r="12" fill="#cf8b7c" opacity="0.4"/>
  <circle cx="150" cy="880" r="14" fill="#cf8b7c" opacity="0.35"/>
  <g transform="translate(196,470)">
      <path d="M 40 0 L 40 210" stroke="#8a6f50" stroke-width="12" stroke-linecap="round"/>
      <path d="M 46 6 C 130 -14 180 26 262 6 L 262 118 C 180 138 130 98 46 118 Z" fill="#fff"/>
      <path d="M 46 6 C 130 -14 180 26 262 6 L 262 44 C 180 64 130 24 46 44 Z" fill="#b55b5b"/>
      <path d="M 46 80 C 130 60 180 100 262 80 L 262 118 C 180 138 130 98 46 118 Z" fill="#5f8fa5"/>
    </g>
  
  <g>
    <path d="M 512 190 C 330 190 300 340 306 470 C 310 590 280 660 260 720 L 764 720 C 744 660 714 590 718 470 C 724 340 694 190 512 190 Z" fill="#5c3a35"/>
    <path d="M 400 640 Q 316 640 268 596" stroke="#ffe3ce" stroke-width="42" fill="none" stroke-linecap="round"/>
    <path d="M 624 640 Q 710 676 740 744" stroke="#ffe3ce" stroke-width="42" fill="none" stroke-linecap="round"/>
    <path d="M 512 560 C 420 560 372 620 362 700 L 352 810 L 672 810 L 662 700 C 652 620 604 560 512 560 Z" fill="#b55b5b"/>
    <path d="M 512 560 C 470 560 440 580 424 606 L 512 660 L 600 606 C 584 580 554 560 512 560 Z" fill="#a04c4f"/>
    <rect x="482" y="520" width="60" height="60" rx="24" fill="#ffe3ce"/>
    <circle cx="512" cy="402" r="168" fill="#ffe3ce"/>
    <path d="M 344 402 A 168 168 0 0 1 680 402 L 680 372 A 168 168 0 0 0 344 372 Z" fill="#f6c9a8" opacity="0.0"/>
    <ellipse cx="448" cy="424" rx="25" ry="33" fill="#4a3b33"/>
       <ellipse cx="576" cy="424" rx="25" ry="33" fill="#4a3b33"/>
       <circle cx="457" cy="412" r="8" fill="#fff"/>
       <circle cx="585" cy="412" r="8" fill="#fff"/>
    <ellipse cx="414" cy="482" rx="26" ry="14" fill="#f7a8a0" opacity="0.55"/>
    <ellipse cx="610" cy="482" rx="26" ry="14" fill="#f7a8a0" opacity="0.55"/>
    <path d="M 488 500 Q 512 522 536 500" stroke="#b06a58" stroke-width="9" fill="none" stroke-linecap="round"/>
    <path d="M 512 234 C 400 234 356 300 348 392 C 380 330 430 322 512 322 C 594 322 644 330 676 392 C 668 300 624 234 512 234 Z" fill="#5c3a35"/>
    <path d="M 358 380 C 366 330 392 310 420 306 C 398 336 392 360 390 396 Z" fill="#482b27"/>
    <path d="M 666 380 C 658 330 632 310 604 306 C 626 336 632 360 634 396 Z" fill="#482b27"/>
    <path d="M 384 266 l 12 26 28 3 -21 19 6 28 -25 -14 -25 14 6 -28 -21 -19 28 -3 Z" fill="#e8c268"/>
  </g>
  <rect x="0" y="806" width="1024" height="218" fill="#e3c294"/>
  <rect x="0" y="806" width="1024" height="26" fill="#d1ab77"/>
      <rect x="150" y="686" width="118" height="120" rx="10" fill="#b55b5b"/><rect x="278" y="686" width="118" height="120" rx="10" fill="#b55b5b"/>
      <rect x="416" y="686" width="118" height="120" rx="10" fill="#eadfd2"/><rect x="544" y="686" width="118" height="120" rx="10" fill="#eadfd2"/>
      <rect x="682" y="686" width="118" height="120" rx="10" fill="#5f8fa5"/><rect x="810" y="686" width="118" height="120" rx="10" fill="#5f8fa5"/>
</svg>
