<svg xmlns="http://www.w3.org/2000/svg" width="1024" height="1024" viewBox="0 0 1024 1024">
  <rect width="1024" height="1024" fill="#f8e4eb"/>
  
  <circle cx="120" cy="140" r="26" fill="#d78fa8" opacity="0.5"/>
  <circle cx="905" cy="200" r="18" fill="#d78fa8" opacity="0.5"/>
  <circle cx="860" cy="95" r="12" fill="#d78fa8" opacity="0.4"/>
  <circle cx="150" cy="880" r="14" fill="#d78fa8" opacity="0.35"/>
  
  
  <g>
    <path d="M 512 200 C 356 200 322 330 326 430 C 328 510 318 545 308 580 L 716 580 C 706 545 696 510 698 430 C 702 330 668 200 512 200 Z" fill="#8c4a54"/>
    <path d="M 400 630 Q 300 600 258 520" stroke="#ffe3ce" stroke-width="42" fill="none" stroke-linecap="round"/>
    <path d="M 624 630 Q 724 600 766 520" stroke="#ffe3ce" stroke-width="42" fill="none" stroke-linecap="round"/>
    <path d="M 512 560 C 420 560 372 620 362 700 L 352 810 L 672 810 L 662 700 C 652 620 604 560 512 560 Z" fill="#c46584"/>
    <path d="M 512 560 C 470 560 440 580 424 606 L 512 660 L 600 606 C 584 580 554 560 512 560 Z" fill="#ad5372"/>
    <rect x="482" y="520" width="60" height="60" rx="24" fill="#ffe3ce"/>
    <circle cx="512" cy="402" r="168" fill="#ffe3ce"/>
    <path d="M 344 402 A 168 168 0 0 1 680 402 L 680 372 A 168 168 0 0 0 344 372 Z" fill="#f6c9a8" opacity="0.0"/>
    <ellipse cx="448" cy="424" rx="25" ry="33" fill="#4a3b33"/>
       <ellipse cx="576" cy="424" rx="25" ry="33" fill="#4a3b33"/>
       <circle cx="457" cy="412" r="8" fill="#fff"/>
       <circle cx="585" cy="412" r="8" fill="#fff"/>
    <ellipse cx="414" cy="482" rx="26" ry="14" fill="#f7a8a0" opacity="0.55"/>
    <ellipse cx="610" cy="482" rx="26" ry="14" fill="#f7a8a0" opacity="0.55"/>
    <path d="M 488 500 Q 512 522 536 500" stroke="#b06a58" stroke-width="9" fill="none" stroke-linecap="round"/>
    <path d="M 512 234 C 400 234 356 300 348 392 C 380 330 430 322 512 322 C 594 322 644 330 676 392 C 668 300 624 234 512 234 Z" fill="#8c4a54"/>
    <path d="M 358 380 C 366 330 392 310 420 306 C 398 336 392 360 390 396 Z" fill="#733a44"/>
    <path d="M 666 380 C 658 330 632 310 604 306 C 626 336 632 360 634 396 Z" fill="#733a44"/>
    <path d="M 388 296 L 348 236" stroke="#c46584" stroke-width="14" stroke-linecap="round"/>
      <path d="M 636 296 L 676 236" stroke="#7a86c2" stroke-width="14" stroke-linecap="round"/>
  </g>
  <rect x="0" y="806" width="1024" height="218" fill="#e3c294"/>
  <rect x="0" y="806" width="1024" height="26" fill="#d1ab77"/>
      <rect x="150" y="736" width="56" height="70" rx="8" fill="#e0a9bc"/><rect x="216" y="710" width="56" height="96" rx="8" fill="#e0a9bc"/>
      <rect x="292" y="656" width="56" height="150" rx="10" fill="#c46584"/>
      <rect x="368" y="698" width="56" height="108" rx="8" fill="#b9c0e0"/><rect x="434" y="684" width="56" height="122" rx="8" fill="#b9c0e0"/><rect x="500" y="690" width="56" height="116" rx="8" fill="#b9c0e0"/>
      <rect x="576" y="638" width="56" height="168" rx="10" fill="#7a86c2"/>
      <rect x="652" y="620" width="56" height="186" rx="8" fill="#9aa7d6"/><rect x="718" y="630" width="56" height="176" rx="8" fill="#9aa7d6"/>
      <path d="M 320 622 L 320 596 M 604 604 L 604 578" stroke="#a0526f" stroke-width="8" stroke-linecap="round"/>
</svg>
