<svg xmlns="http://www.w3.org/2000/svg" width="1024" height="1024" viewBox="0 0 1024 1024">
  <rect width="1024" height="1024" fill="#f6eedb"/>
  
  <circle cx="120" cy="140" r="26" fill="#caa96e" opacity="0.5"/>
  <circle cx="905" cy="200" r="18" fill="#caa96e" opacity="0.5"/>
  <circle cx="860" cy="95" r="12" fill="#caa96e" opacity="0.4"/>
  <circle cx="150" cy="880" r="14" fill="#caa96e" opacity="0.35"/>
  
  
  <g>
    <path d="M 512 190 C 330 190 300 340 306 470 C 310 590 280 660 260 720 L 764 720 C 744 660 714 590 718 470 C 724 340 694 190 512 190 Z" fill="#6d5140"/>
    <path d="M 400 640 Q 310 660 268 728" stroke="#ffe3ce" stroke-width="42" fill="none" stroke-linecap="round"/>
    <path d="M 624 640 Q 714 660 756 728" stroke="#ffe3ce" stroke-width="42" fill="none" stroke-linecap="round"/>
    <path d="M 512 560 C 420 560 372 620 362 700 L 352 810 L 672 810 L 662 700 C 652 620 604 560 512 560 Z" fill="#a9825e"/>
    <path d="M 512 560 C 470 560 440 580 424 606 L 512 660 L 600 606 C 584 580 554 560 512 560 Z" fill="#936f4e"/>
    <rect x="482" y="520" width="60" height="60" rx="24" fill="#ffe3ce"/>
    <circle cx="512" cy="402" r="168" fill="#ffe3ce"/>
    <path d="M 344 402 A 168 168 0 0 1 680 402 L 680 372 A 168 168 0 0 0 344 372 Z" fill="#f6c9a8" opacity="0.0"/>
    <ellipse cx="448" cy="424" rx="25" ry="33" fill="#4a3b33"/>
       <ellipse cx="576" cy="424" rx="25" ry="33" fill="#4a3b33"/>
       <circle cx="457" cy="412" r="8" fill="#fff"/>
       <circle cx="585" cy="412" r="8" fill="#fff"/>
    <ellipse cx="414" cy="482" rx="26" ry="14" fill="#f7a8a0" opacity="0.55"/>
    <ellipse cx="610" cy="482" rx="26" ry="14" fill="#f7a8a0" opacity="0.55"/>
    <path d="M 488 500 Q 512 522 536 500" stroke="#b06a58" stroke-width="9" fill="none" stroke-linecap="round"/>
    <path d="M 512 234 C 400 234 356 300 348 392 C 380 330 430 322 512 322 C 594 322 644 330 676 392 C 668 300 624 234 512 234 Z" fill="#6d5140"/>
    <path d="M 358 380 C 366 330 392 310 420 306 C 398 336 392 360 390 396 Z" fill="#57402f"/>
    <path d="M 666 380 C 658 330 632 310 604 306 C 626 336 632 360 634 396 Z" fill="#57402f"/>
    <rect x="404" y="386" width="88" height="66" rx="12" fill="none" stroke="#8a6f50" stroke-width="9"/>
      <rect x="532" y="386" width="88" height="66" rx="12" fill="none" stroke="#8a6f50" stroke-width="9"/>
      <path d="M 492 412 L 532 412" stroke="#8a6f50" stroke-width="9"/>
  </g>
  <rect x="0" y="806" width="1024" height="218" fill="#e3c294"/>
  <rect x="0" y="806" width="1024" height="26" fill="#d1ab77"/>
      <rect x="180" y="640" width="664" height="20" rx="8" fill="#8a6f50" transform="translate(0,148)"/>
      <rect x="210" y="676" width="52" height="130" rx="8" fill="#c96f6f"/><rect x="272" y="710" width="52" height="96" rx="8" fill="#d99a4f"/>
      <rect x="334" y="700" width="52" height="100" rx="8" fill="none" stroke="#b9a17e" stroke-width="7" stroke-dasharray="14 12"/>
      <rect x="396" y="688" width="52" height="118" rx="8" fill="#8aa65a"/>
      <rect x="458" y="690" width="52" height="110" rx="8" fill="none" stroke="#b9a17e" stroke-width="7" stroke-dasharray="14 12"/>
      <rect x="520" y="656" width="52" height="150" rx="8" fill="#5fa9a3"/><rect x="582" y="722" width="52" height="84" rx="8" fill="#718cb7"/>
      <rect x="644" y="712" width="52" height="88" rx="8" fill="none" stroke="#b9a17e" stroke-width="7" stroke-dasharray="14 12"/>
      <rect x="706" y="674" width="52" height="132" rx="8" fill="#8f7bb6"/>
</svg>
