<svg xmlns="http://www.w3.org/2000/svg" width="1024" height="1024" viewBox="0 0 1024 1024">
  <rect width="1024" height="1024" fill="#dfecf2"/>
  
  <circle cx="120" cy="140" r="26" fill="#7fa6bb" opacity="0.5"/>
  <circle cx="905" cy="200" r="18" fill="#7fa6bb" opacity="0.5"/>
  <circle cx="860" cy="95" r="12" fill="#7fa6bb" opacity="0.4"/>
  <circle cx="150" cy="880" r="14" fill="#7fa6bb" opacity="0.35"/>
  
  
  <g>
    <path d="M 512 200 C 356 200 322 330 326 430 C 328 510 318 545 308 580 L 716 580 C 706 545 696 510 698 430 C 702 330 668 200 512 200 Z" fill="#39566b"/>
    <path d="M 400 640 Q 320 680 296 750" stroke="#ffe3ce" stroke-width="42" fill="none" stroke-linecap="round"/>
    <path d="M 624 640 Q 704 680 728 750" stroke="#ffe3ce" stroke-width="42" fill="none" stroke-linecap="round"/>
    <path d="M 512 560 C 420 560 372 620 362 700 L 352 810 L 672 810 L 662 700 C 652 620 604 560 512 560 Z" fill="#5f8fa5"/>
    <path d="M 512 560 C 470 560 440 580 424 606 L 512 660 L 600 606 C 584 580 554 560 512 560 Z" fill="#4f7d93"/>
    <rect x="482" y="520" width="60" height="60" rx="24" fill="#ffe3ce"/>
    <circle cx="512" cy="402" r="168" fill="#ffe3ce"/>
    <path d="M 344 402 A 168 168 0 0 1 680 402 L 680 372 A 168 168 0 0 0 344 372 Z" fill="#f6c9a8" opacity="0.0"/>
    <ellipse cx="448" cy="424" rx="25" ry="33" fill="#4a3b33"/>
       <ellipse cx="576" cy="424" rx="25" ry="33" fill="#4a3b33"/>
       <circle cx="457" cy="412" r="8" fill="#fff"/>
       <circle cx="585" cy="412" r="8" fill="#fff"/>
    <ellipse cx="414" cy="482" rx="26" ry="14" fill="#f7a8a0" opacity="0.55"/>
    <ellipse cx="610" cy="482" rx="26" ry="14" fill="#f7a8a0" opacity="0.55"/>
    <path d="M 488 500 Q 512 522 536 500" stroke="#b06a58" stroke-width="9" fill="none" stroke-linecap="round"/>
    <path d="M 512 234 C 400 234 356 300 348 392 C 380 330 430 322 512 322 C 594 322 644 330 676 392 C 668 300 624 234 512 234 Z" fill="#39566b"/>
    <path d="M 358 380 C 366 330 392 310 420 306 C 398 336 392 360 390 396 Z" fill="#2b4356"/>
    <path d="M 666 380 C 658 330 632 310 604 306 C 626 336 632 360 634 396 Z" fill="#2b4356"/>
    <rect x="470" y="252" width="84" height="26" rx="13" fill="#e8c268"/>
  </g>
  <rect x="0" y="806" width="1024" height="218" fill="#e3c294"/>
  <rect x="0" y="806" width="1024" height="26" fill="#d1ab77"/>
      <g transform="translate(312,600)">
        <path d="M 200 20 L 200 120" stroke="#8a6f50" stroke-width="12" stroke-linecap="round"/>
        <path d="M 40 40 L 360 0" stroke="#39566b" stroke-width="12" stroke-linecap="round"/>
        <path d="M 40 40 L 12 108 M 40 40 L 68 108" stroke="#39566b" stroke-width="8"/>
        <path d="M 12 108 A 34 34 0 0 0 68 108" fill="#7fa6bb"/>
        <path d="M 360 0 L 332 68 M 360 0 L 388 68" stroke="#39566b" stroke-width="8"/>
        <path d="M 332 68 A 34 34 0 0 0 388 68" fill="#7fa6bb"/>
        <rect x="24" y="66" width="30" height="42" rx="6" fill="#c96f6f"/>
        <rect x="346" y="34" width="30" height="34" rx="6" fill="#8aa65a"/>
      </g>
      <rect x="120" y="706" width="54" height="100" rx="8" fill="#9fc0d0"/><rect x="184" y="678" width="54" height="128" rx="8" fill="#9fc0d0"/>
      <rect x="786" y="718" width="54" height="88" rx="8" fill="#9fc0d0"/><rect x="850" y="658" width="54" height="148" rx="8" fill="#9fc0d0"/>
</svg>
