<svg xmlns="http://www.w3.org/2000/svg" width="1024" height="1024" viewBox="0 0 1024 1024">
  <rect width="1024" height="1024" fill="#ece4f2"/>
  
  <circle cx="120" cy="140" r="26" fill="#a58bc0" opacity="0.5"/>
  <circle cx="905" cy="200" r="18" fill="#a58bc0" opacity="0.5"/>
  <circle cx="860" cy="95" r="12" fill="#a58bc0" opacity="0.4"/>
  <circle cx="150" cy="880" r="14" fill="#a58bc0" opacity="0.35"/>
  
  
  <g>
    <path d="M 512 200 C 350 200 320 330 322 430 C 324 520 310 560 300 600 L 724 600 C 714 560 700 520 702 430 C 704 330 674 200 512 200 Z" fill="#3f3348"/>
         <ellipse cx="300" cy="560" rx="58" ry="120" fill="#3f3348"/>
         <ellipse cx="724" cy="560" rx="58" ry="120" fill="#3f3348"/>
    <path d="M 400 640 Q 316 680 292 752" stroke="#ffe3ce" stroke-width="42" fill="none" stroke-linecap="round"/>
    <path d="M 624 640 Q 708 680 732 752" stroke="#ffe3ce" stroke-width="42" fill="none" stroke-linecap="round"/>
    <path d="M 512 560 C 420 560 372 620 362 700 L 352 810 L 672 810 L 662 700 C 652 620 604 560 512 560 Z" fill="#8b6fa3"/>
    <path d="M 512 560 C 470 560 440 580 424 606 L 512 660 L 600 606 C 584 580 554 560 512 560 Z" fill="#775d8e"/>
    <rect x="482" y="520" width="60" height="60" rx="24" fill="#ffe3ce"/>
    <circle cx="512" cy="402" r="168" fill="#ffe3ce"/>
    <path d="M 344 402 A 168 168 0 0 1 680 402 L 680 372 A 168 168 0 0 0 344 372 Z" fill="#f6c9a8" opacity="0.0"/>
    <ellipse cx="448" cy="424" rx="25" ry="33" fill="#4a3b33"/>
       <ellipse cx="576" cy="424" rx="25" ry="33" fill="#4a3b33"/>
       <circle cx="457" cy="412" r="8" fill="#fff"/>
       <circle cx="585" cy="412" r="8" fill="#fff"/>
    <ellipse cx="414" cy="482" rx="26" ry="14" fill="#f7a8a0" opacity="0.55"/>
    <ellipse cx="610" cy="482" rx="26" ry="14" fill="#f7a8a0" opacity="0.55"/>
    <path d="M 488 500 Q 512 522 536 500" stroke="#b06a58" stroke-width="9" fill="none" stroke-linecap="round"/>
    <path d="M 512 234 C 400 234 356 300 348 392 C 380 330 430 322 512 322 C 594 322 644 330 676 392 C 668 300 624 234 512 234 Z" fill="#3f3348"/>
    <path d="M 358 380 C 366 330 392 310 420 306 C 398 336 392 360 390 396 Z" fill="#2e2436"/>
    <path d="M 666 380 C 658 330 632 310 604 306 C 626 336 632 360 634 396 Z" fill="#2e2436"/>
    <path d="M 620 268 l 16 34 36 4 -27 25 7 36 -32 -18 -32 18 7 -36 -27 -25 36 -4 Z" fill="#e8c268"/>
  </g>
  <rect x="0" y="806" width="1024" height="218" fill="#e3c294"/>
  <rect x="0" y="806" width="1024" height="26" fill="#d1ab77"/>
      <g transform="translate(150,690)">
        <rect x="0" y="24" width="120" height="86" rx="10" fill="#fff" stroke="#c9bfd6" stroke-width="5"/>
        <rect x="8" y="12" width="120" height="86" rx="10" fill="#fff" stroke="#c9bfd6" stroke-width="5"/>
        <rect x="16" y="0" width="120" height="86" rx="10" fill="#fff" stroke="#8b6fa3" stroke-width="6"/>
        <text x="76" y="58" font-family="ui-monospace, monospace" font-size="44" font-weight="700" fill="#8b6fa3" text-anchor="middle">3</text>
      </g>
      <g transform="translate(370,702)">
        <rect x="0" y="12" width="120" height="86" rx="10" fill="#fff" stroke="#c9bfd6" stroke-width="5"/>
        <rect x="8" y="0" width="120" height="86" rx="10" fill="#fff" stroke="#8b6fa3" stroke-width="6"/>
        <text x="68" y="58" font-family="ui-monospace, monospace" font-size="44" font-weight="700" fill="#c96f6f" text-anchor="middle">5</text>
      </g>
      <g transform="translate(580,714)">
        <rect x="0" y="0" width="120" height="86" rx="10" fill="#fff" stroke="#8b6fa3" stroke-width="6"/>
        <text x="60" y="58" font-family="ui-monospace, monospace" font-size="44" font-weight="700" fill="#5f8fa5" text-anchor="middle">8</text>
      </g>
      <g transform="translate(780,690)">
        <rect x="0" y="24" width="120" height="86" rx="10" fill="#f3eef8" stroke="#c9bfd6" stroke-width="5" stroke-dasharray="12 10"/>
      </g>
</svg>
