<svg xmlns="http://www.w3.org/2000/svg" width="1024" height="1024" viewBox="0 0 1024 1024">
  <rect width="1024" height="1024" fill="#e3e6f6"/>
  
  <circle cx="120" cy="140" r="26" fill="#8d97cc" opacity="0.5"/>
  <circle cx="905" cy="200" r="18" fill="#8d97cc" opacity="0.5"/>
  <circle cx="860" cy="95" r="12" fill="#8d97cc" opacity="0.4"/>
  <circle cx="150" cy="880" r="14" fill="#8d97cc" opacity="0.35"/>
  
  
  <g>
    <path d="M 512 190 C 330 190 300 340 306 470 C 310 590 280 660 260 720 L 764 720 C 744 660 714 590 718 470 C 724 340 694 190 512 190 Z" fill="#7d86b8"/>
    <path d="M 400 640 Q 330 700 320 770" stroke="#ffe3ce" stroke-width="42" fill="none" stroke-linecap="round"/>
    <path d="M 624 640 Q 694 700 704 770" stroke="#ffe3ce" stroke-width="42" fill="none" stroke-linecap="round"/>
    <path d="M 512 560 C 420 560 372 620 362 700 L 352 810 L 672 810 L 662 700 C 652 620 604 560 512 560 Z" fill="#7a86c2"/>
    <path d="M 512 560 C 470 560 440 580 424 606 L 512 660 L 600 606 C 584 580 554 560 512 560 Z" fill="#6873b1"/>
    <rect x="482" y="520" width="60" height="60" rx="24" fill="#ffe3ce"/>
    <circle cx="512" cy="402" r="168" fill="#ffe3ce"/>
    <path d="M 344 402 A 168 168 0 0 1 680 402 L 680 372 A 168 168 0 0 0 344 372 Z" fill="#f6c9a8" opacity="0.0"/>
    <path d="M 420 428 Q 448 452 476 428" stroke="#4a3b33" stroke-width="10" fill="none" stroke-linecap="round"/>
       <path d="M 548 428 Q 576 452 604 428" stroke="#4a3b33" stroke-width="10" fill="none" stroke-linecap="round"/>
    <ellipse cx="414" cy="482" rx="26" ry="14" fill="#f7a8a0" opacity="0.55"/>
    <ellipse cx="610" cy="482" rx="26" ry="14" fill="#f7a8a0" opacity="0.55"/>
    <path d="M 488 500 Q 512 522 536 500" stroke="#b06a58" stroke-width="9" fill="none" stroke-linecap="round"/>
    <path d="M 512 234 C 400 234 356 300 348 392 C 380 330 430 322 512 322 C 594 322 644 330 676 392 C 668 300 624 234 512 234 Z" fill="#7d86b8"/>
    <path d="M 358 380 C 366 330 392 310 420 306 C 398 336 392 360 390 396 Z" fill="#6a73a5"/>
    <path d="M 666 380 C 658 330 632 310 604 306 C 626 336 632 360 634 396 Z" fill="#6a73a5"/>
    <path d="M 360 250 C 340 200 380 160 430 176 C 420 210 400 236 360 250 Z" fill="#5d68a2"/>
      <circle cx="352" cy="256" r="26" fill="#e8c268"/>
      <text x="660" y="240" font-family="ui-monospace, monospace" font-size="64" font-weight="800" fill="#5d68a2">z</text>
      <text x="710" y="190" font-family="ui-monospace, monospace" font-size="48" font-weight="800" fill="#7d86b8">z</text>
      <text x="748" y="150" font-family="ui-monospace, monospace" font-size="36" font-weight="800" fill="#9aa3d0">z</text>
  </g>
  <rect x="0" y="806" width="1024" height="218" fill="#e3c294"/>
  <rect x="0" y="806" width="1024" height="26" fill="#d1ab77"/>
      <g transform="translate(170,668)">
        <circle cx="70" cy="80" r="62" fill="#fff" stroke="#7a86c2" stroke-width="8"/>
        <path d="M 70 80 L 70 44 M 70 80 L 94 92" stroke="#5d68a2" stroke-width="8" stroke-linecap="round"/>
        <path d="M 30 26 L 16 12 M 110 26 L 124 12" stroke="#7a86c2" stroke-width="10" stroke-linecap="round"/>
        <text x="70" y="182" font-family="ui-monospace, monospace" font-size="34" font-weight="700" fill="#5d68a2" text-anchor="middle">2</text>
      </g>
      <g transform="translate(430,668)">
        <circle cx="70" cy="80" r="62" fill="#fff" stroke="#7a86c2" stroke-width="8"/>
        <path d="M 70 80 L 70 44 M 70 80 L 48 98" stroke="#5d68a2" stroke-width="8" stroke-linecap="round"/>
        <path d="M 30 26 L 16 12 M 110 26 L 124 12" stroke="#7a86c2" stroke-width="10" stroke-linecap="round"/>
        <text x="70" y="182" font-family="ui-monospace, monospace" font-size="34" font-weight="700" fill="#5d68a2" text-anchor="middle">5</text>
      </g>
      <g transform="translate(690,668)">
        <circle cx="70" cy="80" r="62" fill="#fff" stroke="#7a86c2" stroke-width="8"/>
        <path d="M 70 80 L 70 44 M 70 80 L 92 60" stroke="#5d68a2" stroke-width="8" stroke-linecap="round"/>
        <path d="M 30 26 L 16 12 M 110 26 L 124 12" stroke="#7a86c2" stroke-width="10" stroke-linecap="round"/>
        <text x="70" y="182" font-family="ui-monospace, monospace" font-size="34" font-weight="700" fill="#5d68a2" text-anchor="middle">9</text>
      </g>
</svg>
