<svg xmlns="http://www.w3.org/2000/svg" width="1024" height="1024" viewBox="0 0 1024 1024">
  <rect width="1024" height="1024" fill="#efeade"/>
  
  <circle cx="120" cy="140" r="26" fill="#b3a68d" opacity="0.5"/>
  <circle cx="905" cy="200" r="18" fill="#b3a68d" opacity="0.5"/>
  <circle cx="860" cy="95" r="12" fill="#b3a68d" opacity="0.4"/>
  <circle cx="150" cy="880" r="14" fill="#b3a68d" opacity="0.35"/>
  
  
  <g>
    <path d="M 512 190 C 330 190 300 340 306 470 C 310 590 280 660 260 720 L 764 720 C 744 660 714 590 718 470 C 724 340 694 190 512 190 Z" fill="#a9927a"/>
    <path d="M 400 640 Q 330 700 322 768" stroke="#ffe3ce" stroke-width="42" fill="none" stroke-linecap="round"/>
    <path d="M 624 640 Q 706 674 742 718" stroke="#ffe3ce" stroke-width="42" fill="none" stroke-linecap="round"/>
    <path d="M 512 560 C 420 560 372 620 362 700 L 352 810 L 672 810 L 662 700 C 652 620 604 560 512 560 Z" fill="#9b8d7f"/>
    <path d="M 512 560 C 470 560 440 580 424 606 L 512 660 L 600 606 C 584 580 554 560 512 560 Z" fill="#87796c"/>
    <rect x="482" y="520" width="60" height="60" rx="24" fill="#ffe3ce"/>
    <circle cx="512" cy="402" r="168" fill="#ffe3ce"/>
    <path d="M 344 402 A 168 168 0 0 1 680 402 L 680 372 A 168 168 0 0 0 344 372 Z" fill="#f6c9a8" opacity="0.0"/>
    <path d="M 420 428 Q 448 452 476 428" stroke="#4a3b33" stroke-width="10" fill="none" stroke-linecap="round"/>
       <path d="M 548 428 Q 576 452 604 428" stroke="#4a3b33" stroke-width="10" fill="none" stroke-linecap="round"/>
    <ellipse cx="414" cy="482" rx="26" ry="14" fill="#f7a8a0" opacity="0.55"/>
    <ellipse cx="610" cy="482" rx="26" ry="14" fill="#f7a8a0" opacity="0.55"/>
    <path d="M 488 500 Q 512 522 536 500" stroke="#b06a58" stroke-width="9" fill="none" stroke-linecap="round"/>
    <path d="M 512 234 C 400 234 356 300 348 392 C 380 330 430 322 512 322 C 594 322 644 330 676 392 C 668 300 624 234 512 234 Z" fill="#a9927a"/>
    <path d="M 358 380 C 366 330 392 310 420 306 C 398 336 392 360 390 396 Z" fill="#907a63"/>
    <path d="M 666 380 C 658 330 632 310 604 306 C 626 336 632 360 634 396 Z" fill="#907a63"/>
    <path d="M 404 260 C 412 236 444 232 456 254 C 470 232 502 238 506 262" stroke="#87796c" stroke-width="10" fill="none" stroke-linecap="round"/>
  </g>
  <rect x="0" y="806" width="1024" height="218" fill="#e3c294"/>
  <rect x="0" y="806" width="1024" height="26" fill="#d1ab77"/>
      <g transform="translate(150,652)">
        <circle cx="104" cy="94" r="62" fill="#c9b79b" stroke="#a9927a" stroke-width="8"/>
        <circle cx="104" cy="94" r="34" fill="none" stroke="#a9927a" stroke-width="8"/>
        <path d="M 158 130 C 200 130 224 116 236 88 C 246 110 244 140 224 154 L 158 154 Z" fill="#b3a68d"/>
        <path d="M 236 88 L 252 62 M 244 92 L 262 74" stroke="#87796c" stroke-width="8" stroke-linecap="round"/>
      </g>
      <g transform="translate(640,690)">
        <path d="M 20 40 L 180 40 L 164 116 L 36 116 Z" fill="#fff" stroke="#b3a68d" stroke-width="7"/>
        <path d="M 180 52 C 216 52 216 96 172 96" fill="none" stroke="#b3a68d" stroke-width="7"/>
        <path d="M 66 18 C 60 4 74 -6 84 4 M 116 18 C 110 4 124 -6 134 4" stroke="#c4bab0" stroke-width="7" fill="none" stroke-linecap="round"/>
      </g>
</svg>
